<svg width="15" height="14" viewBox="0 0 15 14" fill="none" xmlns="http://www.w3.org/2000/svg">
<path d="M6.02506 9.96037C6.35006 10.2854 6.87506 10.2854 7.20006 9.96037L10.7334 6.42704C11.0584 6.10204 11.0584 5.57704 10.7334 5.2437C10.6563 5.16645 10.5647 5.10516 10.4639 5.06334C10.3631 5.02153 10.255 5 10.1459 5C10.0368 5 9.92868 5.02153 9.82787 5.06334C9.72706 5.10516 9.63549 5.16645 9.55839 5.2437L6.60839 8.18537L5.43339 7.01037C5.10839 6.68537 4.58339 6.68537 4.25006 7.01037C3.91673 7.33537 3.92506 7.86037 4.25006 8.18537L6.02506 9.96037Z" fill="#BFC3CB"/>
<path d="M13.3333 0H1.66667C1.22464 0 0.800716 0.175595 0.488155 0.488155C0.175595 0.800716 0 1.22464 0 1.66667V11.6667C0 12.1087 0.175595 12.5326 0.488155 12.8452C0.800716 13.1577 1.22464 13.3333 1.66667 13.3333H13.3333C14.25 13.3333 15 12.5833 15 11.6667V1.66667C15 1.22464 14.8244 0.800716 14.5118 0.488155C14.1993 0.175595 13.7754 0 13.3333 0ZM13.3333 10.8333C13.3333 11.2917 12.9583 11.6667 12.5 11.6667H2.5C2.04167 11.6667 1.66667 11.2917 1.66667 10.8333V3.33333H13.3333V10.8333Z" fill="#BFC3CB"/>
</svg>
