<svg width="16" height="14" viewBox="0 0 16 14" fill="none" xmlns="http://www.w3.org/2000/svg">
<path d="M15.875 0.619141L15.155 0.830078L2.26925 4.75014H0.125V9.25014H2.26981L3.37681 9.58427L3.35994 9.63658V9.65458C2.99881 10.8426 3.66763 12.1633 4.90681 12.5368C4.91244 12.5385 4.91919 12.5351 4.92369 12.5368C6.11788 12.8996 7.43975 12.2387 7.80706 10.99L7.82394 10.9371L15.155 13.1702L15.875 13.3806V0.619141ZM4.44894 9.91783L6.75181 10.6041L6.73494 10.6564V10.6733C6.54144 11.3314 5.84281 11.6531 5.24094 11.4647C4.58281 11.2718 4.24419 10.5906 4.43206 9.98814V9.97127L4.44894 9.91783Z" fill="#BFC3CB"/>
</svg>
