<svg width="17" height="15" viewBox="0 0 17 15" fill="none" xmlns="http://www.w3.org/2000/svg">
<path fill-rule="evenodd" clip-rule="evenodd" d="M4.00366 4.80411C4.00366 4.3619 4.36215 4.00342 4.80436 4.00342H11.2099C11.6521 4.00342 12.0106 4.3619 12.0106 4.80411C12.0106 5.24632 11.6521 5.60481 11.2099 5.60481H4.80436C4.36215 5.60481 4.00366 5.24632 4.00366 4.80411Z" fill="#808191"/>
<path fill-rule="evenodd" clip-rule="evenodd" d="M4.00366 8.00699C4.00366 7.56478 4.36215 7.2063 4.80436 7.2063H8.00713C8.44934 7.2063 8.80783 7.56478 8.80783 8.00699C8.80783 8.4492 8.44934 8.80769 8.00713 8.80769H4.80436C4.36215 8.80769 4.00366 8.4492 4.00366 8.00699Z" fill="#808191"/>
<path fill-rule="evenodd" clip-rule="evenodd" d="M3.77898 11.5809C4.06678 11.3411 4.42954 11.2097 4.80417 11.2097H13.6118C14.054 11.2097 14.4125 10.8512 14.4125 10.409V2.40208C14.4125 1.95987 14.054 1.60139 13.6118 1.60139H2.40208C1.95987 1.60139 1.60139 1.95987 1.60139 2.40208V13.3955L3.77898 11.5809ZM4.80417 12.8111H13.6118C14.9384 12.8111 16.0139 11.7357 16.0139 10.409V2.40208C16.0139 1.07545 14.9384 0 13.6118 0H2.40208C1.07545 0 0 1.07545 0 2.40208V13.3955C0 14.7533 1.58354 15.495 2.62657 14.6258L4.80417 12.8111Z" fill="#808191"/>
</svg>
