<svg width="16" height="16" viewBox="0 0 16 16" fill="none" xmlns="http://www.w3.org/2000/svg">
<path d="M8 12C8.22667 12 8.4168 11.9232 8.5704 11.7696C8.72347 11.6165 8.8 11.4267 8.8 11.2V8.8H11.22C11.4467 8.8 11.6333 8.7232 11.78 8.5696C11.9267 8.41653 12 8.22667 12 8C12 7.77333 11.9232 7.5832 11.7696 7.4296C11.6165 7.27653 11.4267 7.2 11.2 7.2H8.8V4.78C8.8 4.55333 8.72347 4.36667 8.5704 4.22C8.4168 4.07333 8.22667 4 8 4C7.77333 4 7.58347 4.07653 7.4304 4.2296C7.2768 4.3832 7.2 4.57333 7.2 4.8V7.2H4.78C4.55333 7.2 4.36667 7.27653 4.22 7.4296C4.07333 7.5832 4 7.77333 4 8C4 8.22667 4.07653 8.41653 4.2296 8.5696C4.3832 8.7232 4.57333 8.8 4.8 8.8H7.2V11.22C7.2 11.4467 7.2768 11.6333 7.4304 11.78C7.58347 11.9267 7.77333 12 8 12ZM8 16C6.89333 16 5.85333 15.7899 4.88 15.3696C3.90667 14.9499 3.06 14.38 2.34 13.66C1.62 12.94 1.05013 12.0933 0.6304 11.12C0.210133 10.1467 0 9.10667 0 8C0 6.89333 0.210133 5.85333 0.6304 4.88C1.05013 3.90667 1.62 3.06 2.34 2.34C3.06 1.62 3.90667 1.04987 4.88 0.6296C5.85333 0.209867 6.89333 0 8 0C9.10667 0 10.1467 0.209867 11.12 0.6296C12.0933 1.04987 12.94 1.62 13.66 2.34C14.38 3.06 14.9499 3.90667 15.3696 4.88C15.7899 5.85333 16 6.89333 16 8C16 9.10667 15.7899 10.1467 15.3696 11.12C14.9499 12.0933 14.38 12.94 13.66 13.66C12.94 14.38 12.0933 14.9499 11.12 15.3696C10.1467 15.7899 9.10667 16 8 16ZM8 14.4C9.77333 14.4 11.2835 13.7768 12.5304 12.5304C13.7768 11.2835 14.4 9.77333 14.4 8C14.4 6.22667 13.7768 4.71653 12.5304 3.4696C11.2835 2.2232 9.77333 1.6 8 1.6C6.22667 1.6 4.7168 2.2232 3.4704 3.4696C2.22347 4.71653 1.6 6.22667 1.6 8C1.6 9.77333 2.22347 11.2835 3.4704 12.5304C4.7168 13.7768 6.22667 14.4 8 14.4Z" fill="#808191"/>
</svg>
