<svg width="15" height="15" viewBox="0 0 15 15" fill="none" xmlns="http://www.w3.org/2000/svg">
<path d="M0 7.17949C0 7.81674 0.516595 8.33333 1.15385 8.33333H5.51282C6.15007 8.33333 6.66667 7.81674 6.66667 7.17949V1.15385C6.66667 0.516595 6.15007 0 5.51282 0H1.15385C0.516594 0 0 0.516595 0 1.15385V7.17949ZM0 13.8462C0 14.4834 0.516595 15 1.15385 15H5.51282C6.15007 15 6.66667 14.4834 6.66667 13.8462V11.1538C6.66667 10.5166 6.15007 10 5.51282 10H1.15385C0.516594 10 0 10.5166 0 11.1538V13.8462ZM8.33333 13.8462C8.33333 14.4834 8.84993 15 9.48718 15H13.8462C14.4834 15 15 14.4834 15 13.8462V7.82051C15 7.18326 14.4834 6.66667 13.8462 6.66667H9.48718C8.84993 6.66667 8.33333 7.18326 8.33333 7.82051V13.8462ZM9.48718 0C8.84993 0 8.33333 0.516595 8.33333 1.15385V3.84615C8.33333 4.48341 8.84993 5 9.48718 5H13.8462C14.4834 5 15 4.48341 15 3.84615V1.15385C15 0.516595 14.4834 0 13.8462 0H9.48718Z" fill="white"/>
</svg>
