<svg width="19" height="19" viewBox="0 0 19 19" fill="none" xmlns="http://www.w3.org/2000/svg">
<path d="M9.024 1.99431e-06C7.23828 0.000991052 5.49295 0.531474 4.00871 1.52437C2.52447 2.51727 1.36798 3.92799 0.685479 5.57814C0.0029797 7.2283 -0.174877 9.04377 0.174397 10.795C0.523672 12.5462 1.38439 14.1546 2.64772 15.4166C3.91105 16.6787 5.52024 17.5378 7.27182 17.8854C9.02341 18.2329 10.8387 18.0532 12.4882 17.3691C14.1377 16.6849 15.5472 15.527 16.5386 14.0418C17.5301 12.5566 18.0588 10.8107 18.058 9.025C18.0576 7.83918 17.8236 6.66504 17.3694 5.56967C16.9151 4.4743 16.2495 3.47915 15.4106 2.64106C14.5717 1.80297 13.5758 1.13837 12.48 0.685208C11.3842 0.232049 10.2098 -0.00078617 9.024 1.99431e-06ZM15.245 11.456C14.893 11.343 14.216 11.308 13.964 11.005C13.838 10.853 13.921 10.284 13.921 10.284C14.3849 10.3113 14.8481 10.2201 15.267 10.019C15.436 9.919 15.358 9.902 15.267 9.754C14.9472 8.90114 14.8501 7.98081 14.985 7.08C15.0131 6.71253 14.9491 6.34384 14.7988 6.00736C14.6484 5.67087 14.4165 5.37722 14.124 5.153C13.7028 4.93814 13.2335 4.83485 12.761 4.853C12.3865 4.84424 12.0136 4.90458 11.661 5.031C9.82 5.769 10.906 8.209 10.276 9.606C10.167 9.84 10.011 9.923 10.285 10.062C10.6819 10.2329 11.108 10.3256 11.54 10.335C11.54 10.335 11.553 10.882 11.54 10.935C11.492 11.148 11.028 11.295 10.854 11.343C10.6115 11.4096 10.3736 11.4921 10.142 11.59C10.1075 11.6043 10.0786 11.6294 10.0595 11.6614C10.0404 11.6935 10.0322 11.731 10.0362 11.7681C10.0401 11.8052 10.0559 11.8401 10.0813 11.8675C10.1067 11.8948 10.1403 11.9133 10.177 11.92C10.3467 11.9491 10.5138 11.9912 10.677 12.046C11.4222 12.2391 12.1088 12.6116 12.677 13.131C13.1955 13.647 13.5047 14.3366 13.545 15.067C13.5542 15.1642 13.5368 15.262 13.4947 15.3501C13.4526 15.4381 13.3874 15.5131 13.306 15.567L13.059 15.723C13.0407 15.7339 13.0198 15.7398 12.9985 15.7403C12.9772 15.7407 12.9561 15.7357 12.9373 15.7257C12.9186 15.7156 12.9027 15.7009 12.8912 15.6829C12.8798 15.6649 12.8732 15.6443 12.872 15.623C12.8794 15.0024 12.6915 14.3951 12.3347 13.8872C11.9779 13.3793 11.4704 12.9965 10.884 12.793C10.298 12.593 9.664 12.576 9.078 12.372C8.9 12.311 8.548 12.237 8.478 12.033C8.42253 11.8235 8.39496 11.6077 8.396 11.391C8.38734 11.2263 8.383 11.0613 8.383 10.896C8.383 10.787 8.661 10.557 8.722 10.458C8.91747 10.0315 9.01975 9.56818 9.022 9.099C9.4 9.199 9.447 8.504 9.513 8.292C9.561 8.144 9.73 7.385 9.4 7.268C9.49728 7.06622 9.55661 6.84826 9.575 6.625C9.68546 6.06166 9.66803 5.48071 9.524 4.925C9.33785 4.39298 8.98917 3.93294 8.52726 3.60993C8.06536 3.28692 7.5136 3.11728 6.95 3.125C6.37741 3.07797 5.80441 3.2108 5.31091 3.50497C4.81741 3.79913 4.42801 4.23997 4.197 4.766C4.01775 5.31929 3.97587 5.90791 4.075 6.481C4.09115 6.75333 4.15903 7.02008 4.275 7.267C3.997 7.389 4.075 8.035 4.127 8.192C4.196 8.413 4.257 9.208 4.652 9.099C4.67891 9.45496 4.73645 9.80793 4.824 10.154C4.89642 10.3781 5.01806 10.5831 5.18 10.754C5.258 10.841 5.297 10.854 5.293 10.962C5.30708 11.3084 5.27955 11.6552 5.211 11.995C5.124 12.325 4.399 12.464 4.111 12.525C3.48978 12.6027 2.88332 12.7712 2.311 13.025C1.60942 11.8438 1.23149 10.4985 1.21529 9.12477C1.1991 7.75101 1.5452 6.39723 2.21874 5.1998C2.89228 4.00237 3.86948 3.00357 5.0519 2.30401C6.23432 1.60446 7.58021 1.22884 8.954 1.215C11.0261 1.19827 13.0206 2.00212 14.502 3.451C15.6263 4.5552 16.3914 5.97284 16.6974 7.5187C17.0034 9.06457 16.8359 10.6668 16.217 12.116C15.9654 11.8066 15.629 11.5772 15.249 11.456H15.245Z" fill="#BFC3CB"/>
</svg>
