<svg width="18" height="16" viewBox="0 0 18 16" fill="none" xmlns="http://www.w3.org/2000/svg">
<path d="M13.9223 13.2833C14.9618 13.3683 16.0074 13.2344 16.9919 12.8903C17.0295 12.427 16.9352 11.9626 16.7198 11.5507C16.5044 11.1388 16.1768 10.7963 15.7749 10.5628C15.373 10.3293 14.9132 10.2144 14.4488 10.2313C13.9843 10.2483 13.5341 10.3963 13.1502 10.6585M13.9215 13.2825L13.9223 13.308C13.9223 13.4926 13.9125 13.6747 13.892 13.8544C12.403 14.7087 10.7158 15.1569 8.99916 15.1541C7.2186 15.1541 5.54719 14.6815 4.10633 13.8544C4.08524 13.6645 4.0751 13.4736 4.07597 13.2825M13.9223 13.2825C13.9191 12.3525 13.6513 11.4427 13.1502 10.6593M13.1502 10.6593C12.7054 9.96165 12.0918 9.38749 11.3662 8.98992C10.6407 8.59235 9.82652 8.38421 8.99916 8.38477C8.17193 8.38435 7.35795 8.59255 6.63252 8.99011C5.9071 9.38768 5.29364 9.96177 4.84891 10.6593M4.84891 10.6593C4.46508 10.3974 4.01496 10.2495 3.5506 10.2327C3.08625 10.2159 2.62662 10.3309 2.22486 10.5643C1.8231 10.7978 1.49562 11.1402 1.28029 11.5519C1.06495 11.9637 0.970555 12.428 1.00801 12.8911C1.99175 13.2371 3.0377 13.3705 4.0768 13.2825M4.84809 10.6593C4.34726 11.4428 4.07974 12.3526 4.0768 13.2825M11.4607 3.46159C11.4607 4.11445 11.2014 4.74056 10.7398 5.2022C10.2781 5.66384 9.65201 5.92318 8.99916 5.92318C8.3463 5.92318 7.72019 5.66384 7.25855 5.2022C6.79691 4.74056 6.53757 4.11445 6.53757 3.46159C6.53757 2.80874 6.79691 2.18262 7.25855 1.72098C7.72019 1.25935 8.3463 1 8.99916 1C9.65201 1 10.2781 1.25935 10.7398 1.72098C11.2014 2.18262 11.4607 2.80874 11.4607 3.46159V3.46159ZM16.3839 5.92318C16.3839 6.16563 16.3362 6.4057 16.2434 6.62969C16.1506 6.85368 16.0146 7.0572 15.8432 7.22864C15.6718 7.40007 15.4682 7.53606 15.2442 7.62884C15.0203 7.72162 14.7802 7.76937 14.5377 7.76937C14.2953 7.76937 14.0552 7.72162 13.8312 7.62884C13.6072 7.53606 13.4037 7.40007 13.2323 7.22864C13.0608 7.0572 12.9249 6.85368 12.8321 6.62969C12.7393 6.4057 12.6915 6.16563 12.6915 5.92318C12.6915 5.43354 12.8861 4.96395 13.2323 4.61773C13.5785 4.2715 14.0481 4.07699 14.5377 4.07699C15.0274 4.07699 15.497 4.2715 15.8432 4.61773C16.1894 4.96395 16.3839 5.43354 16.3839 5.92318V5.92318ZM5.30677 5.92318C5.30677 6.16563 5.25902 6.4057 5.16624 6.62969C5.07346 6.85368 4.93747 7.0572 4.76603 7.22864C4.5946 7.40007 4.39107 7.53606 4.16708 7.62884C3.94309 7.72162 3.70302 7.76937 3.46058 7.76937C3.21813 7.76937 2.97806 7.72162 2.75407 7.62884C2.53008 7.53606 2.32656 7.40007 2.15512 7.22864C1.98369 7.0572 1.8477 6.85368 1.75492 6.62969C1.66214 6.4057 1.61438 6.16563 1.61438 5.92318C1.61438 5.43354 1.80889 4.96395 2.15512 4.61773C2.50135 4.2715 2.97094 4.07699 3.46058 4.07699C3.95022 4.07699 4.4198 4.2715 4.76603 4.61773C5.11226 4.96395 5.30677 5.43354 5.30677 5.92318V5.92318Z" stroke="#808191" stroke-width="1.5" stroke-linecap="round" stroke-linejoin="round"/>
</svg>
