<svg width="16" height="16" viewBox="0 0 16 16" fill="none" xmlns="http://www.w3.org/2000/svg">
<path d="M4.8 16C4.36 16 3.98347 15.8435 3.6704 15.5304C3.3568 15.2168 3.2 14.84 3.2 14.4C3.2 13.96 3.3568 13.5832 3.6704 13.2696C3.98347 12.9565 4.36 12.8 4.8 12.8C5.24 12.8 5.61653 12.9565 5.9296 13.2696C6.2432 13.5832 6.4 13.96 6.4 14.4C6.4 14.84 6.2432 15.2168 5.9296 15.5304C5.61653 15.8435 5.24 16 4.8 16ZM12.8 16C12.36 16 11.9835 15.8435 11.6704 15.5304C11.3568 15.2168 11.2 14.84 11.2 14.4C11.2 13.96 11.3568 13.5832 11.6704 13.2696C11.9835 12.9565 12.36 12.8 12.8 12.8C13.24 12.8 13.6168 12.9565 13.9304 13.2696C14.2435 13.5832 14.4 13.96 14.4 14.4C14.4 14.84 14.2435 15.2168 13.9304 15.5304C13.6168 15.8435 13.24 16 12.8 16ZM4.12 3.2L6.04 7.2H11.64L13.84 3.2H4.12ZM4.8 12C4.2 12 3.74667 11.7365 3.44 11.2096C3.13333 10.6832 3.12 10.16 3.4 9.64L4.48 7.68L1.6 1.6H0.78C0.553333 1.6 0.366667 1.5232 0.22 1.3696C0.0733333 1.21653 0 1.02667 0 0.8C0 0.573333 0.0768 0.3832 0.2304 0.2296C0.383467 0.0765333 0.573333 0 0.8 0H2.1C2.24667 0 2.38667 0.0400001 2.52 0.12C2.65333 0.2 2.75333 0.313333 2.82 0.46L3.36 1.6H15.16C15.52 1.6 15.7667 1.73333 15.9 2C16.0333 2.26667 16.0267 2.54667 15.88 2.84L13.04 7.96C12.8933 8.22667 12.7 8.43333 12.46 8.58C12.22 8.72667 11.9467 8.8 11.64 8.8H5.68L4.8 10.4H13.62C13.8467 10.4 14.0333 10.4765 14.18 10.6296C14.3267 10.7832 14.4 10.9733 14.4 11.2C14.4 11.4267 14.3232 11.6165 14.1696 11.7696C14.0165 11.9232 13.8267 12 13.6 12H4.8ZM6.04 7.2H11.64H6.04Z" fill="#808191"/>
</svg>
