<svg width="16" height="14" viewBox="0 0 16 14" fill="none" xmlns="http://www.w3.org/2000/svg">
<path d="M9.336 5.6296C9.27262 5.62917 9.21165 5.65383 9.16638 5.69819C9.12112 5.74256 9.09524 5.80303 9.0944 5.8664V7.636C9.09524 7.69951 9.12123 7.7601 9.16667 7.80449C9.2121 7.84888 9.27328 7.87344 9.3368 7.8728H14.6672C14.7307 7.87344 14.7919 7.84888 14.8373 7.80449C14.8828 7.7601 14.9088 7.69951 14.9096 7.636V5.8664C14.9088 5.80289 14.8828 5.7423 14.8373 5.69791C14.7919 5.65352 14.7307 5.62896 14.6672 5.6296H9.3368H9.336ZM12.6048 0.000800037C13.3424 0.036 13.8728 0.1816 14.2088 0.4904C14.5408 0.796 14.7112 1.2384 14.7448 1.824V3.5016C14.7431 3.64447 14.6848 3.78082 14.5826 3.88072C14.4805 3.98062 14.3429 4.03589 14.2 4.0344C14.1292 4.03525 14.0589 4.02213 13.9932 3.99582C13.9274 3.9695 13.8675 3.93048 13.8168 3.88101C13.7662 3.83153 13.7258 3.77256 13.6979 3.70746C13.67 3.64236 13.6552 3.57241 13.6544 3.5016L13.6552 1.8544C13.6376 1.5504 13.5648 1.3616 13.4608 1.2656C13.36 1.1728 13.0528 1.0896 12.5784 1.0656H2.1176C1.688 1.0816 1.4088 1.1632 1.2736 1.2792C1.1696 1.368 1.0912 1.6128 1.0904 2.036L1.088 11.452C1.128 11.8632 1.2184 12.1376 1.3344 12.2744C1.4224 12.3784 1.6952 12.4824 2.0968 12.5336H12.5896C13.0808 12.5432 13.3704 12.4696 13.468 12.3712C13.576 12.2616 13.6544 11.9736 13.6544 11.5024V9.8664C13.6544 9.5728 13.8984 9.3336 14.2 9.3336C14.5008 9.3336 14.7448 9.5728 14.7448 9.8664V11.5024C14.7448 12.2224 14.5976 12.7608 14.2528 13.1104C13.8976 13.4704 13.3328 13.6144 12.5784 13.5984L2.032 13.596C1.3144 13.5128 0.8 13.316 0.4936 12.9536C0.216 12.6256 0.0616 12.1576 0 11.5032V2.0352C0.0016 1.3344 0.1696 0.8072 0.5552 0.4776C0.9088 0.1736 1.4192 0.0256 2.0968 0H12.6048V0.000800037ZM14.6672 4.564C15.4032 4.564 16 5.1472 16 5.8664V7.636C16 8.3552 15.4032 8.9384 14.6672 8.9384H9.3368C8.6008 8.9384 8.004 8.3544 8.004 7.636V5.8664C8.004 5.1472 8.6008 4.564 9.3368 4.564H14.6672ZM10.6696 6.116C10.3016 6.116 10.0032 6.404 10.0032 6.7584C10.0032 7.1136 10.3016 7.4008 10.6696 7.4008C11.0376 7.4008 11.336 7.1128 11.336 6.7584C11.336 6.4032 11.0376 6.1152 10.6696 6.1152V6.116Z" fill="#808191"/>
</svg>
