<svg width="19" height="20" viewBox="0 0 19 20" fill="none" xmlns="http://www.w3.org/2000/svg">
<path d="M10.8864 19.1667H7.44733C7.00339 19.1667 6.61928 18.8533 6.52428 18.4134L6.13975 16.6079C5.62678 16.3799 5.14038 16.0948 4.6895 15.7579L2.95393 16.3185C2.53066 16.4554 2.07054 16.2747 1.84853 15.8844L0.125236 12.8647C-0.0943435 12.4742 -0.0186938 11.9816 0.30758 11.6773L1.6539 10.4315C1.59268 9.86711 1.59268 9.29764 1.6539 8.73329L0.30758 7.49033C-0.0191744 7.18594 -0.0948541 6.69273 0.125236 6.302L1.84475 3.28038C2.06676 2.89004 2.52688 2.70934 2.95015 2.84625L4.68572 3.40687C4.91631 3.23357 5.15635 3.07359 5.4047 2.92771C5.64311 2.79133 5.88847 2.66785 6.13975 2.55779L6.52522 0.754208C6.61976 0.314303 7.00346 0.000473793 7.44733 0H10.8864C11.3302 0.000473793 11.7139 0.314303 11.8085 0.754208L12.1977 2.55875C12.463 2.67712 12.7214 2.81087 12.9715 2.95933C13.2051 3.09616 13.431 3.24622 13.648 3.40879L15.3845 2.84817C15.8075 2.71177 16.267 2.8924 16.4889 3.28229L18.2084 6.30392C18.428 6.69442 18.3524 7.18703 18.0261 7.49129L16.6798 8.73712C16.741 9.30148 16.741 9.87094 16.6798 10.4353L18.0261 11.6811C18.3524 11.9854 18.428 12.478 18.2084 12.8685L16.4889 15.8901C16.267 16.28 15.8075 16.4606 15.3845 16.3242L13.648 15.7636C13.4282 15.9278 13.1999 16.0797 12.9639 16.2188C12.7162 16.3644 12.4608 16.4959 12.1987 16.6127L11.8085 18.4134C11.7135 18.8529 11.3299 19.1663 10.8864 19.1667ZM9.16306 5.75C7.0759 5.75 5.38392 7.46624 5.38392 9.58333C5.38392 11.7004 7.0759 13.4167 9.16306 13.4167C11.2502 13.4167 12.9422 11.7004 12.9422 9.58333C12.9422 7.46624 11.2502 5.75 9.16306 5.75Z" fill="white"/>
</svg>
