<svg width="13" height="15" viewBox="0 0 13 15" fill="none" xmlns="http://www.w3.org/2000/svg">
<path d="M11.4583 1.41667H8.4975C8.2 0.595 7.42083 0 6.5 0C5.57917 0 4.8 0.595 4.5025 1.41667H1.54167C0.7625 1.41667 0.125 2.05417 0.125 2.83333V12.75C0.125 13.5292 0.7625 14.1667 1.54167 14.1667H11.4583C12.2375 14.1667 12.875 13.5292 12.875 12.75V2.83333C12.875 2.05417 12.2375 1.41667 11.4583 1.41667ZM6.5 1.41667C6.88958 1.41667 7.20833 1.73542 7.20833 2.125C7.20833 2.51458 6.88958 2.83333 6.5 2.83333C6.11042 2.83333 5.79167 2.51458 5.79167 2.125C5.79167 1.73542 6.11042 1.41667 6.5 1.41667ZM7.91667 11.3333H2.95833V9.91667H7.91667V11.3333ZM10.0417 8.5H2.95833V7.08333H10.0417V8.5ZM10.0417 5.66667H2.95833V4.25H10.0417V5.66667Z" fill="#BFC3CB"/>
</svg>
