<svg width="47" height="44" viewBox="0 0 47 44" fill="none" xmlns="http://www.w3.org/2000/svg">
<path fill-rule="evenodd" clip-rule="evenodd" d="M8.14352 7.191C5.743 9.31775 4.39263 12.037 4.39263 14.5867C4.39263 16.516 4.40739 18.9432 5.33946 21.3341C5.70722 22.2775 5.24058 23.3404 4.29721 23.7081C3.35383 24.0759 2.29095 23.6093 1.9232 22.6659C0.725506 19.5935 0.725783 16.5566 0.725956 14.6544L0.72596 14.5867C0.72596 10.7597 2.7144 7.10226 5.71202 4.4465C8.72637 1.77593 12.8815 0 17.4742 0C23.1613 0 28.2752 2.47515 31.3254 6.37667H32.3891C35.8219 6.37667 39.178 7.40074 41.721 9.11648C44.2393 10.8156 46.2019 13.3836 46.2019 16.5C46.2019 16.5403 46.202 16.5809 46.202 16.6217C46.2027 18.3947 46.2036 20.6605 44.8792 22.9254C44.3681 23.7995 43.2452 24.0937 42.3712 23.5826C41.4971 23.0715 41.2029 21.9486 41.714 21.0746C42.5031 19.725 42.5353 18.3763 42.5353 16.5C42.5353 15.0331 41.5971 13.4561 39.6702 12.156C37.768 10.8726 35.1344 10.0433 32.3891 10.0433H30.3938C29.7852 10.0433 29.2163 9.74134 28.8753 9.23728C26.6696 5.97684 22.4459 3.66667 17.4742 3.66667C13.8296 3.66667 10.5273 5.07907 8.14352 7.191ZM21.764 18.2913C22.44 17.7365 23.4138 17.7365 24.0898 18.2913L32.8448 25.4748C33.6275 26.117 33.7414 27.2722 33.0991 28.055C32.4569 28.8378 31.3017 28.9516 30.5189 28.3094L24.7603 23.5844V41.7646C24.7603 42.7772 23.9395 43.598 22.927 43.598C21.9144 43.598 21.0936 42.7772 21.0936 41.7646V23.5843L15.3349 28.3094C14.5521 28.9516 13.3969 28.8378 12.7547 28.055C12.1124 27.2722 12.2263 26.117 13.009 25.4748L21.764 18.2913Z" fill="#FF4268"/>
</svg>
