<svg width="74" height="74" viewBox="0 0 74 74" fill="none" xmlns="http://www.w3.org/2000/svg">
<path d="M37 0.333252C16.782 0.333252 0.333374 16.7819 0.333374 36.9999V52.1909C0.333374 55.9456 3.62237 58.9999 7.66671 58.9999H11.3334C12.3058 58.9999 13.2385 58.6136 13.9261 57.926C14.6137 57.2383 15 56.3057 15 55.3333V36.4756C15 35.5031 14.6137 34.5705 13.9261 33.8829C13.2385 33.1952 12.3058 32.8089 11.3334 32.8089H8.00404C10.0427 18.6189 22.2527 7.66659 37 7.66659C51.7474 7.66659 63.9574 18.6189 65.996 32.8089H62.6667C61.6942 32.8089 60.7616 33.1952 60.074 33.8829C59.3863 34.5705 59 35.5031 59 36.4756V58.9999C59 63.0443 55.711 66.3333 51.6667 66.3333H44.3334V62.6666H29.6667V73.6666H51.6667C59.7554 73.6666 66.3334 67.0886 66.3334 58.9999C70.3777 58.9999 73.6667 55.9456 73.6667 52.1909V36.9999C73.6667 16.7819 57.218 0.333252 37 0.333252Z" fill="blackAlpha"/>
</svg>
