<svg width="306" height="229" viewBox="0 0 306 229" fill="none" xmlns="http://www.w3.org/2000/svg">
<path d="M306 201.029H0V201.182H306V201.029Z" fill="#EBEBEB"/>
<path d="M275.339 210.876H255.069V211.029H275.339V210.876Z" fill="#EBEBEB"/>
<path d="M202.707 212.541H197.388V212.694H202.707V212.541Z" fill="#EBEBEB"/>
<path d="M254.457 205.197H242.713V205.35H254.457V205.197Z" fill="#EBEBEB"/>
<path d="M58.5378 206.225H32.1055V206.378H58.5378V206.225Z" fill="#EBEBEB"/>
<path d="M67.8647 206.225H63.9907V206.378H67.8647V206.225Z" fill="#EBEBEB"/>
<path d="M137.792 208.807H80.4595V208.96H137.792V208.807Z" fill="#EBEBEB"/>
<path d="M145.044 173.734H26.8729C25.9472 173.732 25.0599 173.363 24.4059 172.708C23.7519 172.053 23.3845 171.165 23.3845 170.239V4.12392C23.3926 3.20349 23.7635 2.32341 24.4166 1.67483C25.0698 1.02626 25.9525 0.66158 26.8729 0.660004H145.044C145.971 0.660004 146.86 1.02818 147.515 1.68352C148.17 2.33887 148.539 3.22772 148.539 4.15452V170.239C148.539 171.166 148.17 172.055 147.515 172.71C146.86 173.365 145.971 173.734 145.044 173.734V173.734ZM26.8729 0.782404C25.9878 0.784025 25.1394 1.13679 24.5141 1.76327C23.8887 2.38975 23.5375 3.23876 23.5375 4.12392V170.239C23.5375 171.124 23.8887 171.973 24.5141 172.6C25.1394 173.226 25.9878 173.579 26.8729 173.581H145.044C145.93 173.579 146.779 173.226 147.405 172.6C148.031 171.974 148.384 171.125 148.386 170.239V4.12392C148.384 3.23819 148.031 2.38921 147.405 1.7629C146.779 1.13659 145.93 0.784022 145.044 0.782404H26.8729Z" fill="#EBEBEB"/>
<path d="M277.426 173.734H159.249C158.322 173.732 157.434 173.363 156.779 172.708C156.124 172.053 155.756 171.165 155.754 170.239V4.12392C155.764 3.20293 156.136 2.32285 156.79 1.67445C157.444 1.02605 158.328 0.661563 159.249 0.660004H277.426C278.345 0.663189 279.226 1.02858 279.878 1.67698C280.53 2.32538 280.9 3.20455 280.908 4.12392V170.239C280.908 171.164 280.542 172.051 279.889 172.706C279.236 173.361 278.35 173.73 277.426 173.734V173.734ZM159.249 0.782404C158.363 0.784022 157.514 1.13659 156.888 1.7629C156.261 2.38921 155.909 3.23819 155.907 4.12392V170.239C155.909 171.125 156.261 171.974 156.888 172.6C157.514 173.226 158.363 173.579 159.249 173.581H277.426C278.311 173.579 279.16 173.226 279.787 172.6C280.413 171.974 280.766 171.125 280.767 170.239V4.12392C280.766 3.23819 280.413 2.38921 279.787 1.7629C279.16 1.13659 278.311 0.784022 277.426 0.782404H159.249Z" fill="#EBEBEB"/>
<path d="M177.29 73.5247L261.612 73.5247V18.3039L177.29 18.3039V73.5247Z" fill="#E6E6E6"/>
<path d="M174.714 73.5247L260.406 73.5247V18.3039L174.714 18.3039V73.5247Z" fill="#F0F0F0"/>
<path d="M177.29 84.3571L261.612 84.3571V73.5186L177.29 73.5186V84.3571Z" fill="#E6E6E6"/>
<path d="M170.436 84.3571L256.128 84.3571V73.5186L170.436 73.5186V84.3571Z" fill="#F0F0F0"/>
<path d="M256.807 69.9262V21.9086L178.318 21.9086V69.9262H256.807Z" fill="#FAFAFA"/>
<path d="M239.108 69.92L229.084 21.9087H213.441L223.466 69.92H239.108Z" fill="white"/>
<path d="M255.143 66.3398C255.177 66.3398 255.211 66.333 255.243 66.3197C255.274 66.3064 255.303 66.2869 255.327 66.2624C255.351 66.2379 255.369 66.2088 255.382 66.1769C255.395 66.145 255.401 66.1109 255.4 66.0767V24.2526C255.4 24.1844 255.373 24.1191 255.324 24.0708C255.276 24.0226 255.211 23.9956 255.143 23.9956C255.109 23.9947 255.075 24.0008 255.043 24.0134C255.012 24.026 254.983 24.0449 254.959 24.069C254.935 24.093 254.916 24.1217 254.904 24.1533C254.891 24.1848 254.885 24.2186 254.886 24.2526V66.0767C254.885 66.1109 254.891 66.145 254.903 66.1769C254.916 66.2088 254.935 66.2379 254.959 66.2624C254.983 66.2869 255.011 66.3064 255.043 66.3197C255.075 66.333 255.108 66.3398 255.143 66.3398V66.3398Z" fill="#F0F0F0"/>
<path d="M220.106 69.92L210.081 21.9087H203.98L214.01 69.92H220.106Z" fill="white"/>
<path d="M178.777 69.9262V21.9087H178.318V69.9262H178.777Z" fill="#E6E6E6"/>
<path opacity="0.6" d="M173.869 27.3371H258.191L258.521 23.304H174.2L173.869 27.3371Z" fill="#EBEBEB"/>
<path opacity="0.6" d="M173.869 33.9467H258.191L258.521 29.9197H174.2L173.869 33.9467Z" fill="#EBEBEB"/>
<path opacity="0.6" d="M173.869 40.5562H258.191L258.521 36.5293H174.2L173.869 40.5562Z" fill="#EBEBEB"/>
<path opacity="0.6" d="M173.869 47.172H258.191L258.521 43.139H174.2L173.869 47.172Z" fill="#EBEBEB"/>
<path opacity="0.6" d="M173.869 53.7816H258.191L258.521 49.7485H174.2L173.869 53.7816Z" fill="#EBEBEB"/>
<path opacity="0.6" d="M173.869 60.3912H258.191L258.521 56.3581H174.2L173.869 60.3912Z" fill="#EBEBEB"/>
<path d="M249.506 160.869H231.826V164.358H249.506V160.869Z" fill="#E6E6E6"/>
<path d="M198.478 201.029H201.74V120.814H198.478V201.029Z" fill="#E6E6E6"/>
<path d="M187.168 164.358H231.819V160.869H187.168V164.358Z" fill="#F5F5F5"/>
<path d="M249.506 179.945H231.826V183.434H249.506V179.945Z" fill="#E6E6E6"/>
<path d="M187.168 183.428H231.819V179.939H187.168V183.428Z" fill="#F5F5F5"/>
<path d="M249.506 122.723H231.826V126.212H249.506V122.723Z" fill="#E6E6E6"/>
<path d="M187.168 126.206H231.819V122.717H187.168V126.206Z" fill="#F5F5F5"/>
<path d="M249.506 141.793H231.826V145.282H249.506V141.793Z" fill="#E6E6E6"/>
<path d="M187.168 145.282H231.819V141.793H187.168V145.282Z" fill="#F5F5F5"/>
<path d="M243.135 201.029H246.397V120.814H243.135V201.029Z" fill="#E6E6E6"/>
<path d="M228.558 201.029H231.819V120.814H228.558V201.029Z" fill="#F5F5F5"/>
<path d="M187.168 201.029H190.43V120.814H187.168V201.029Z" fill="#F5F5F5"/>
<path d="M40.0126 201.029H73.4155L73.4155 136.224H40.0126L40.0126 201.029Z" fill="#E6E6E6"/>
<path d="M48.9294 201.029H40.0064V192.081H58.2807L48.9294 201.029Z" fill="#FAFAFA"/>
<path d="M131.078 201.029H164.481V136.224H131.078V201.029Z" fill="#E6E6E6"/>
<path d="M40.0125 197.944H138.869V136.218H40.0125L40.0125 197.944Z" fill="#FAFAFA"/>
<path d="M129.946 201.029H138.863V192.081H120.595L129.946 201.029Z" fill="#FAFAFA"/>
<path d="M46.9281 174.67H131.947V159.223H46.9281V174.67Z" fill="#F0F0F0"/>
<path d="M46.9281 193.416H131.947V177.969H46.9281V193.416Z" fill="#F0F0F0"/>
<path d="M115.79 160.875H63.0911C62.3477 160.875 61.6347 160.58 61.1091 160.054C60.5834 159.529 60.2881 158.816 60.2881 158.073V157.883H118.587V158.073C118.587 158.815 118.293 159.527 117.768 160.052C117.244 160.578 116.533 160.874 115.79 160.875Z" fill="#FAFAFA"/>
<path d="M46.9281 155.918H131.947V140.471H46.9281V155.918Z" fill="#F0F0F0"/>
<path d="M115.79 142.124H63.0911C62.3477 142.124 61.6347 141.829 61.1091 141.303C60.5834 140.777 60.2881 140.064 60.2881 139.321V139.131H118.587V139.321C118.587 140.063 118.293 140.775 117.768 141.301C117.244 141.826 116.533 142.122 115.79 142.124Z" fill="#FAFAFA"/>
<path d="M115.79 179.627H63.0911C62.3477 179.627 61.6347 179.332 61.1091 178.806C60.5834 178.281 60.2881 177.568 60.2881 176.824V176.635H118.587V176.824C118.587 177.567 118.293 178.279 117.768 178.804C117.244 179.33 116.533 179.626 115.79 179.627Z" fill="#FAFAFA"/>
<path d="M45.3308 73.5247L129.652 73.5247V18.3039L45.3308 18.3039V73.5247Z" fill="#E6E6E6"/>
<path d="M42.7604 73.5247L128.453 73.5247V18.3039L42.7604 18.3039V73.5247Z" fill="#F0F0F0"/>
<path d="M45.3308 84.3571L129.652 84.3571V73.5186L45.3308 73.5186V84.3571Z" fill="#E6E6E6"/>
<path d="M38.4704 84.3571L124.163 84.3571V73.5186L38.4704 73.5186V84.3571Z" fill="#F0F0F0"/>
<path d="M124.848 69.9262V21.9087L46.359 21.9087V69.9262H124.848Z" fill="#FAFAFA"/>
<path d="M107.149 69.92L97.1243 21.9087H81.4816L91.5062 69.92H107.149Z" fill="white"/>
<path d="M123.177 66.3398C123.211 66.3398 123.245 66.333 123.277 66.3197C123.309 66.3064 123.337 66.2869 123.361 66.2624C123.385 66.2379 123.404 66.2088 123.416 66.1769C123.429 66.145 123.435 66.1109 123.434 66.0767V24.2526C123.435 24.2186 123.429 24.1848 123.416 24.1533C123.404 24.1217 123.385 24.093 123.361 24.069C123.337 24.0449 123.308 24.026 123.277 24.0134C123.245 24.0008 123.211 23.9947 123.177 23.9956C123.109 23.9956 123.044 24.0226 122.995 24.0708C122.947 24.1191 122.92 24.1844 122.92 24.2526V66.0767C122.919 66.1109 122.925 66.145 122.938 66.1769C122.95 66.2088 122.969 66.2379 122.993 66.2624C123.017 66.2869 123.046 66.3064 123.077 66.3197C123.109 66.333 123.143 66.3398 123.177 66.3398Z" fill="#F0F0F0"/>
<path d="M88.1463 69.92L78.1217 21.9087H72.0201L82.0446 69.92H88.1463Z" fill="white"/>
<path d="M46.818 69.9262V21.9087H46.359V69.9262H46.818Z" fill="#E6E6E6"/>
<path opacity="0.6" d="M41.9036 27.3371H126.225L126.555 23.304H42.234L41.9036 27.3371Z" fill="#EBEBEB"/>
<path opacity="0.6" d="M41.9036 29.6137H126.225L126.555 25.5807H42.234L41.9036 29.6137Z" fill="#EBEBEB"/>
<path opacity="0.6" d="M41.9036 31.8843H126.225L126.555 27.8573H42.234L41.9036 31.8843Z" fill="#EBEBEB"/>
<path opacity="0.6" d="M41.9036 34.1609H126.225L126.555 30.1278H42.234L41.9036 34.1609Z" fill="#EBEBEB"/>
<path opacity="0.6" d="M41.9036 36.4314H126.225L126.555 32.4044H42.234L41.9036 36.4314Z" fill="#EBEBEB"/>
<path opacity="0.6" d="M41.9036 38.708H126.225L126.555 34.6749H42.234L41.9036 38.708Z" fill="#EBEBEB"/>
<path d="M58.7643 134.241H61.6774L61.6774 101.75H58.7643L58.7643 134.241Z" fill="#F5F5F5"/>
<path d="M59.1314 134.223H59.9576L59.9576 101.732H59.1314L59.1314 134.223Z" fill="#FAFAFA"/>
<path d="M60.3003 134.223H60.6247L60.6247 101.732H60.3003L60.3003 134.223Z" fill="#FAFAFA"/>
<path d="M71.0104 136.224H49.4436C49.4436 135.503 49.7298 134.812 50.2394 134.303C50.749 133.793 51.4402 133.507 52.1608 133.507H68.287C69.0077 133.507 69.6989 133.793 70.2084 134.303C70.718 134.812 71.0043 135.503 71.0043 136.224H71.0104Z" fill="#F0F0F0"/>
<path d="M54.9821 121.922C55.2039 121.92 55.4163 121.831 55.5732 121.674C55.7301 121.517 55.8189 121.305 55.8205 121.083V99.804C55.8205 99.5817 55.7322 99.3684 55.5749 99.2112C55.4177 99.0539 55.2044 98.9656 54.9821 98.9656V98.9656C54.8715 98.9648 54.7618 98.9859 54.6593 99.0277C54.5569 99.0694 54.4638 99.1311 54.3852 99.209C54.3067 99.2869 54.2444 99.3796 54.2019 99.4818C54.1594 99.5839 54.1375 99.6934 54.1375 99.804V121.108C54.1454 121.326 54.2379 121.533 54.3954 121.685C54.553 121.837 54.7633 121.922 54.9821 121.922Z" fill="#F0F0F0"/>
<path d="M47.1669 109.474H73.2687L70.2638 91.236H50.1719L47.1669 109.474Z" fill="#E0E0E0"/>
<path d="M153 228.667C218.535 228.667 271.661 225.565 271.661 221.739C271.661 217.913 218.535 214.811 153 214.811C87.4656 214.811 34.3394 217.913 34.3394 221.739C34.3394 225.565 87.4656 228.667 153 228.667Z" fill="#F5F5F5"/>
<path d="M63.7206 90.8437L63.1102 90.8877L63.9232 102.174L64.5336 102.13L63.7206 90.8437Z" fill="#414272"/>
<path d="M64.9485 107.957L64.3381 108.001L64.6441 112.249L65.2545 112.205L64.9485 107.957Z" fill="#414272"/>
<path d="M206.679 159.878H75.6126C74.1537 159.852 72.7561 159.286 71.6894 158.291C70.6226 157.295 69.9621 155.94 69.8354 154.486L63.3971 65.0546C63.3372 64.3649 63.4225 63.6703 63.6474 63.0155C63.8723 62.3608 64.2318 61.7604 64.7028 61.253C65.1739 60.7457 65.746 60.3426 66.3822 60.0698C67.0185 59.797 67.7049 59.6604 68.3972 59.669H199.463C200.921 59.6951 202.318 60.2597 203.384 61.254C204.451 62.2483 205.112 63.6021 205.24 65.0546L211.679 154.486C211.738 155.176 211.653 155.871 211.428 156.526C211.204 157.181 210.844 157.782 210.373 158.29C209.902 158.798 209.33 159.201 208.694 159.475C208.058 159.748 207.371 159.886 206.679 159.878V159.878Z" fill="#414272"/>
<path d="M207.18 159.878H76.1145C74.6556 159.852 73.258 159.286 72.1912 158.291C71.1245 157.295 70.464 155.94 70.3372 154.486L63.899 65.0546C63.8391 64.3649 63.9244 63.6703 64.1493 63.0155C64.3742 62.3608 64.7337 61.7604 65.2047 61.253C65.6758 60.7457 66.2479 60.3426 66.8841 60.0698C67.5204 59.797 68.2068 59.6604 68.8991 59.669H199.965C201.423 59.6951 202.82 60.2597 203.886 61.254C204.953 62.2483 205.614 63.6021 205.742 65.0546L212.181 154.486C212.241 155.176 212.157 155.872 211.932 156.527C211.708 157.183 211.348 157.784 210.877 158.292C210.406 158.8 209.834 159.204 209.197 159.477C208.56 159.75 207.873 159.887 207.18 159.878V159.878Z" fill="#414272"/>
<path opacity="0.5" d="M207.18 159.878H76.1145C74.6556 159.852 73.258 159.286 72.1912 158.291C71.1245 157.295 70.464 155.94 70.3372 154.486L63.899 65.0546C63.8391 64.3649 63.9244 63.6703 64.1493 63.0155C64.3742 62.3608 64.7337 61.7604 65.2047 61.253C65.6758 60.7457 66.2479 60.3426 66.8841 60.0698C67.5204 59.797 68.2068 59.6604 68.8991 59.669H199.965C201.423 59.6951 202.82 60.2597 203.886 61.254C204.953 62.2483 205.614 63.6021 205.742 65.0546L212.181 154.486C212.241 155.176 212.157 155.872 211.932 156.527C211.708 157.183 211.348 157.784 210.877 158.292C210.406 158.8 209.834 159.204 209.197 159.477C208.56 159.75 207.873 159.887 207.18 159.878V159.878Z" fill="white"/>
<path d="M200.161 62.3618H69.0949H68.6543C65.3066 62.6372 65.9921 67.7352 69.3703 67.7352H200.657C204.041 67.7352 203.992 62.6372 200.601 62.3618H200.161Z" fill="#414272"/>
<path d="M72.5099 65.0546C72.5228 65.2124 72.5024 65.3711 72.4501 65.5205C72.3979 65.6699 72.3148 65.8067 72.2064 65.9221C72.098 66.0374 71.9666 66.1287 71.8207 66.1901C71.6748 66.2515 71.5176 66.2817 71.3593 66.2786C71.0267 66.2739 70.7076 66.1463 70.4635 65.9203C70.2194 65.6942 70.0676 65.3859 70.0374 65.0546C70.0246 64.8973 70.0448 64.7391 70.0967 64.5901C70.1486 64.4412 70.2311 64.3047 70.3389 64.1894C70.4466 64.0742 70.5773 63.9827 70.7225 63.9209C70.8676 63.8591 71.0241 63.8284 71.1819 63.8306C71.5155 63.8338 71.8362 63.9607 72.0815 64.1869C72.3269 64.413 72.4796 64.7223 72.5099 65.0546Z" fill="#FAFAFA"/>
<path d="M76.7143 65.0546C76.7271 65.2124 76.7068 65.3711 76.6545 65.5205C76.6022 65.6699 76.5192 65.8067 76.4108 65.9221C76.3023 66.0374 76.1709 66.1287 76.025 66.1901C75.8791 66.2515 75.722 66.2817 75.5637 66.2786C75.2311 66.2739 74.9119 66.1463 74.6679 65.9203C74.4238 65.6942 74.272 65.3859 74.2418 65.0546C74.229 64.8973 74.2492 64.7391 74.3011 64.5901C74.353 64.4412 74.4355 64.3047 74.5432 64.1894C74.651 64.0742 74.7816 63.9827 74.9268 63.9209C75.072 63.8591 75.2285 63.8284 75.3862 63.8306C75.7199 63.8338 76.0405 63.9607 76.2859 64.1869C76.5313 64.413 76.6839 64.7223 76.7143 65.0546Z" fill="#FAFAFA"/>
<path d="M80.9126 65.0546C80.9254 65.2119 80.9052 65.3701 80.8533 65.519C80.8014 65.668 80.7189 65.8045 80.6112 65.9198C80.5034 66.035 80.3727 66.1265 80.2276 66.1883C80.0824 66.2501 79.9259 66.2808 79.7682 66.2786C79.4351 66.2753 79.1153 66.1481 78.8709 65.9218C78.6265 65.6956 78.4751 65.3864 78.4462 65.0546C78.4325 64.8971 78.452 64.7386 78.5036 64.5891C78.5551 64.4397 78.6375 64.3028 78.7455 64.1874C78.8534 64.0719 78.9845 63.9805 79.1301 63.919C79.2757 63.8576 79.4327 63.8274 79.5907 63.8306C79.9233 63.8353 80.2424 63.9629 80.4865 64.1889C80.7306 64.415 80.8824 64.7233 80.9126 65.0546V65.0546Z" fill="#FAFAFA"/>
<path d="M203.704 150.955H78.336C77.8064 150.946 77.2989 150.741 76.9122 150.379C76.5254 150.017 76.2869 149.524 76.2429 148.997L70.9491 75.4525C70.9256 75.2002 70.956 74.9457 71.0383 74.7059C71.1206 74.4662 71.253 74.2468 71.4266 74.0621C71.6003 73.8775 71.8112 73.7319 72.0454 73.635C72.2797 73.5381 72.5318 73.4922 72.7851 73.5002H198.184C198.713 73.5075 199.22 73.7115 199.607 74.0724C199.994 74.4333 200.233 74.9253 200.277 75.4525L205.577 148.997C205.6 149.252 205.568 149.51 205.483 149.752C205.398 149.994 205.263 150.216 205.085 150.401C204.908 150.586 204.693 150.732 204.455 150.827C204.216 150.923 203.961 150.966 203.704 150.955V150.955Z" fill="white"/>
<path d="M150.876 122.938L148.832 94.5897L142.651 90.8687H125.631L127.945 122.938H150.876Z" fill="white"/>
<path d="M150.876 123.231H127.945C127.869 123.233 127.795 123.205 127.739 123.154C127.683 123.103 127.65 123.032 127.645 122.956L125.338 90.8871C125.335 90.8468 125.34 90.8064 125.354 90.7685C125.368 90.7305 125.389 90.6959 125.417 90.6668C125.444 90.6366 125.477 90.6123 125.514 90.5954C125.551 90.5786 125.591 90.5695 125.631 90.5689H142.651C142.705 90.5707 142.757 90.5854 142.804 90.6117L148.985 94.3327C149.027 94.3565 149.062 94.3901 149.088 94.4307C149.113 94.4712 149.128 94.5174 149.132 94.5652L151.164 122.913C151.168 122.954 151.163 122.996 151.15 123.035C151.136 123.074 151.114 123.11 151.084 123.139C151.058 123.168 151.026 123.191 150.99 123.207C150.954 123.223 150.915 123.231 150.876 123.231V123.231ZM128.232 122.619H150.552L148.545 94.7427L142.596 91.1625H125.95L128.232 122.619Z" fill="#414272"/>
<path d="M148.832 94.5897L142.651 90.8687L144.922 95.8015L148.832 94.5897Z" fill="#EBEBEB"/>
<path d="M144.922 96.0952C144.865 96.0949 144.81 96.0787 144.762 96.0484C144.715 96.018 144.677 95.9749 144.652 95.9239L142.382 90.9912C142.355 90.9332 142.348 90.8685 142.36 90.806C142.372 90.7434 142.403 90.6862 142.449 90.6423C142.498 90.6008 142.558 90.5755 142.622 90.57C142.685 90.5645 142.749 90.5791 142.804 90.6117L148.985 94.3327C149.035 94.3626 149.076 94.4061 149.102 94.4582C149.128 94.5102 149.138 94.5686 149.132 94.6264C149.124 94.6828 149.101 94.7357 149.064 94.779C149.027 94.8224 148.979 94.8544 148.924 94.8712L145.007 96.0952H144.922ZM143.324 91.6154L145.081 95.4404L148.141 94.504L143.324 91.6154Z" fill="#414272"/>
<path d="M135.252 105.312C135.261 105.478 135.236 105.645 135.179 105.801C135.122 105.957 135.033 106.1 134.918 106.221C134.804 106.342 134.666 106.438 134.513 106.504C134.359 106.57 134.195 106.604 134.028 106.603C133.679 106.597 133.344 106.462 133.089 106.223C132.833 105.985 132.675 105.66 132.645 105.312C132.629 105.144 132.649 104.974 132.704 104.815C132.759 104.655 132.848 104.509 132.963 104.386C133.079 104.264 133.22 104.167 133.376 104.103C133.532 104.039 133.7 104.009 133.869 104.015C134.219 104.022 134.554 104.159 134.809 104.398C135.064 104.638 135.222 104.963 135.252 105.312Z" fill="#414272"/>
<path d="M143.636 105.312C143.651 105.48 143.63 105.648 143.575 105.807C143.52 105.966 143.431 106.111 143.316 106.233C143.2 106.356 143.059 106.452 142.904 106.515C142.748 106.579 142.581 106.609 142.412 106.603C142.062 106.597 141.727 106.462 141.471 106.224C141.214 105.985 141.055 105.661 141.023 105.312C141.013 105.145 141.037 104.978 141.094 104.821C141.151 104.664 141.24 104.52 141.355 104.399C141.469 104.277 141.608 104.18 141.761 104.114C141.915 104.048 142.08 104.014 142.247 104.015C142.599 104.019 142.936 104.155 143.192 104.395C143.449 104.635 143.608 104.962 143.636 105.312V105.312Z" fill="#414272"/>
<path d="M146.011 113.721C145.937 113.72 145.865 113.691 145.811 113.64C145.757 113.589 145.723 113.52 145.717 113.445C145.564 111.359 142.296 109.663 138.434 109.663C135.87 109.663 133.569 110.428 132.431 111.652C132.197 111.878 132.014 112.151 131.893 112.452C131.773 112.754 131.718 113.078 131.733 113.403C131.736 113.443 131.731 113.483 131.718 113.521C131.705 113.56 131.685 113.595 131.659 113.625C131.605 113.687 131.53 113.724 131.448 113.73C131.367 113.736 131.287 113.709 131.226 113.656C131.164 113.602 131.127 113.527 131.121 113.445C131.103 113.04 131.17 112.635 131.317 112.256C131.465 111.878 131.69 111.535 131.978 111.248C133.202 109.908 135.693 109.07 138.416 109.07C142.657 109.07 146.115 110.973 146.286 113.403C146.289 113.441 146.284 113.48 146.271 113.516C146.259 113.553 146.239 113.587 146.214 113.616C146.188 113.645 146.157 113.668 146.122 113.685C146.087 113.702 146.05 113.712 146.011 113.715V113.721Z" fill="#414272"/>
<path d="M130.46 102.693C130.385 102.691 130.314 102.663 130.258 102.613C130.203 102.557 130.171 102.481 130.171 102.402C130.171 102.323 130.203 102.247 130.258 102.191L131.562 100.789C131.618 100.735 131.692 100.705 131.77 100.705C131.847 100.705 131.922 100.735 131.978 100.789C132.005 100.817 132.027 100.849 132.042 100.885C132.057 100.92 132.064 100.959 132.064 100.997C132.064 101.036 132.057 101.074 132.042 101.11C132.027 101.146 132.005 101.178 131.978 101.205L130.674 102.607C130.646 102.635 130.613 102.657 130.576 102.672C130.539 102.686 130.5 102.694 130.46 102.693V102.693Z" fill="#414272"/>
<path d="M145.399 102.693C145.325 102.689 145.254 102.661 145.197 102.613L143.698 101.212C143.669 101.184 143.647 101.151 143.631 101.115C143.616 101.079 143.608 101.04 143.608 101C143.608 100.961 143.616 100.922 143.631 100.886C143.647 100.849 143.669 100.817 143.698 100.789C143.753 100.735 143.828 100.705 143.906 100.705C143.983 100.705 144.058 100.735 144.114 100.789L145.613 102.191C145.641 102.218 145.662 102.251 145.677 102.286C145.692 102.322 145.7 102.36 145.7 102.399C145.7 102.438 145.692 102.476 145.677 102.512C145.662 102.547 145.641 102.58 145.613 102.607C145.555 102.661 145.479 102.692 145.399 102.693V102.693Z" fill="#414272"/>
<path d="M123.783 129.272H125.166L127.161 131.928L126.972 129.272H128.367L128.71 134.07H127.296L125.313 131.432L125.503 134.07H124.108L123.783 129.272Z" fill="#414272"/>
<path d="M129.334 131.671C129.287 131.345 129.309 131.013 129.4 130.696C129.491 130.38 129.648 130.086 129.86 129.835C130.093 129.606 130.371 129.43 130.677 129.317C130.983 129.204 131.31 129.157 131.635 129.18C132.325 129.143 133.002 129.373 133.526 129.823C134.006 130.301 134.285 130.945 134.303 131.622C134.354 132.089 134.291 132.561 134.12 132.999C133.961 133.351 133.696 133.645 133.361 133.837C132.959 134.053 132.507 134.156 132.051 134.137C131.583 134.152 131.117 134.064 130.687 133.88C130.309 133.699 129.991 133.415 129.769 133.06C129.506 132.642 129.356 132.164 129.334 131.671V131.671ZM130.821 131.671C130.815 132.046 130.936 132.413 131.164 132.711C131.26 132.817 131.377 132.9 131.508 132.955C131.639 133.01 131.781 133.035 131.923 133.029C132.058 133.039 132.194 133.016 132.319 132.961C132.444 132.907 132.553 132.823 132.639 132.717C132.815 132.383 132.873 131.999 132.804 131.628C132.807 131.268 132.686 130.918 132.461 130.637C132.363 130.533 132.244 130.452 132.112 130.398C131.981 130.344 131.839 130.319 131.696 130.324C131.563 130.319 131.431 130.345 131.309 130.4C131.188 130.455 131.082 130.538 130.999 130.643C130.82 130.958 130.757 131.326 130.821 131.683V131.671Z" fill="#414272"/>
<path d="M137.18 129.272H139.383C139.746 129.26 140.108 129.321 140.448 129.449C140.717 129.562 140.956 129.736 141.146 129.957C141.338 130.182 141.486 130.442 141.58 130.722C141.679 131.024 141.741 131.336 141.764 131.653C141.811 132.052 141.78 132.458 141.672 132.846C141.588 133.115 141.438 133.358 141.237 133.556C141.07 133.733 140.859 133.864 140.625 133.935C140.341 134.018 140.047 134.063 139.75 134.07H137.553L137.18 129.272ZM138.74 130.361L138.93 132.981H139.291C139.515 132.995 139.738 132.96 139.946 132.876C140.083 132.797 140.184 132.668 140.228 132.515C140.298 132.244 140.314 131.961 140.277 131.683C140.288 131.31 140.174 130.943 139.952 130.643C139.839 130.54 139.705 130.462 139.559 130.413C139.414 130.365 139.26 130.347 139.108 130.361H138.74Z" fill="#414272"/>
<path d="M145.319 133.274H143.636L143.459 134.07H141.947L143.404 129.272H145.044L147.192 134.07H145.638L145.319 133.274ZM144.934 132.24L144.285 130.514L143.881 132.24H144.934Z" fill="#414272"/>
<path d="M146.494 129.272H150.999L151.084 130.459H149.573L149.83 134.07H148.349L148.092 130.459H146.58L146.494 129.272Z" fill="#414272"/>
<path d="M154.45 133.274H152.767L152.59 134.07H151.078L152.535 129.272H154.151L156.293 134.07H154.744L154.45 133.274ZM154.065 132.24L153.41 130.514L153 132.24H154.065Z" fill="#414272"/>
<path d="M216.458 72.9249C217.003 72.6495 217.682 72.3129 218.258 71.9641C218.833 71.6152 219.482 71.2786 220.094 70.9114C221.287 70.1709 222.499 69.4427 223.643 68.6348C225.942 67.0621 228.096 65.2885 230.081 63.3349C230.332 63.1023 230.553 62.8453 230.791 62.5944L231.14 62.221L231.311 62.0374L231.397 61.9395C231.311 62.1048 231.397 62.0558 231.397 61.8967C231.451 61.6781 231.482 61.4546 231.489 61.2296C231.475 59.9283 231.325 58.632 231.042 57.3618C230.498 54.62 229.671 51.7926 228.857 49.0263L231.232 47.9859C232.731 50.64 233.982 53.4261 234.971 56.3091C235.527 57.8672 235.88 59.4899 236.024 61.1378C236.061 61.6502 236.045 62.165 235.975 62.6739C235.884 63.3936 235.629 64.0826 235.228 64.6874L235.124 64.8282L235.045 64.9261L234.953 65.0424L234.763 65.2749L234.384 65.7339C234.133 66.0338 233.888 66.3459 233.619 66.6336C231.526 68.956 229.191 71.0487 226.654 72.876C225.43 73.7817 224.133 74.6508 222.805 75.4403C222.15 75.8381 221.483 76.2175 220.803 76.5908C220.124 76.9641 219.463 77.3069 218.68 77.6741L216.458 72.9249Z" fill="#FFB573"/>
<path d="M211.011 216.806C211.47 216.795 211.925 216.733 212.37 216.623C212.393 216.616 212.413 216.603 212.429 216.586C212.445 216.569 212.456 216.548 212.462 216.525C212.465 216.501 212.461 216.477 212.452 216.456C212.442 216.434 212.426 216.416 212.407 216.402C212.229 216.286 210.675 215.282 210.075 215.552C210.009 215.583 209.952 215.631 209.91 215.691C209.868 215.751 209.842 215.821 209.836 215.894C209.812 216.01 209.818 216.129 209.854 216.242C209.889 216.354 209.953 216.456 210.038 216.537C210.32 216.741 210.665 216.837 211.011 216.806V216.806ZM212.021 216.451C211.134 216.629 210.461 216.598 210.185 216.359C210.13 216.303 210.09 216.234 210.069 216.158C210.047 216.082 210.045 216.002 210.063 215.925C210.065 215.892 210.076 215.861 210.094 215.834C210.112 215.807 210.138 215.786 210.167 215.772C210.491 215.631 211.391 216.084 212.021 216.451Z" fill="#414272"/>
<path d="M212.364 216.623H212.425C212.443 216.612 212.458 216.596 212.469 216.578C212.48 216.56 212.486 216.539 212.487 216.518C212.487 216.451 212.487 214.976 211.923 214.487C211.856 214.422 211.775 214.373 211.686 214.344C211.597 214.316 211.502 214.308 211.409 214.321C211.313 214.322 211.22 214.356 211.145 214.417C211.07 214.479 211.019 214.563 210.999 214.658C210.883 215.27 211.813 216.341 212.303 216.623C212.323 216.628 212.344 216.628 212.364 216.623V216.623ZM211.489 214.548C211.588 214.548 211.684 214.585 211.758 214.652C212.081 215.128 212.248 215.693 212.236 216.268C211.746 215.876 211.165 215.044 211.238 214.695C211.238 214.64 211.281 214.566 211.434 214.548H211.489Z" fill="#414272"/>
<path d="M211.887 57.6188C211.275 60.6788 210.051 66.7988 212.162 68.849C212.162 68.849 211.33 71.909 205.681 71.909C199.463 71.909 202.713 68.849 202.713 68.849C206.103 68.0412 206.012 65.5259 205.424 63.1574L211.887 57.6188Z" fill="#FFB573"/>
<path d="M201.519 70.073C200.546 70.2076 201.379 67.6801 201.77 67.4169C202.688 66.8049 214.537 65.9542 214.457 67.4169C214.408 68.0289 214.114 69.2529 213.6 69.6568C213.086 70.0607 210.038 68.8 201.519 70.073Z" fill="#263238"/>
<path d="M203.453 69.204C202.676 69.4671 202.75 66.9212 203.013 66.6152C203.625 65.9053 213.215 63.445 213.496 64.8343C213.606 65.4463 213.661 66.6703 213.331 67.1048C213 67.5393 210.185 66.8233 203.453 69.204Z" fill="#263238"/>
<path d="M199.885 52.1353C199.847 52.1369 199.809 52.1295 199.773 52.1136C199.738 52.0976 199.708 52.0736 199.683 52.0435C199.497 51.8026 199.256 51.609 198.981 51.4783C198.705 51.3475 198.403 51.2833 198.098 51.2907C198.067 51.295 198.034 51.2928 198.003 51.2842C197.972 51.2756 197.943 51.2609 197.918 51.2409C197.893 51.2209 197.872 51.196 197.857 51.1678C197.842 51.1395 197.832 51.1085 197.829 51.0765C197.824 51.0135 197.843 50.9508 197.883 50.9018C197.923 50.8527 197.98 50.821 198.043 50.8133C198.429 50.7937 198.813 50.8674 199.163 51.0284C199.514 51.1893 199.821 51.4325 200.057 51.7375C200.098 51.7871 200.118 51.8509 200.112 51.9151C200.106 51.9793 200.075 52.0386 200.026 52.0802C199.985 52.11 199.936 52.129 199.885 52.1353V52.1353Z" fill="#263238"/>
<path d="M198.698 55.128C198.42 56.1043 198.009 57.0374 197.474 57.9003C197.699 58.0294 197.949 58.1078 198.207 58.13C198.464 58.1522 198.724 58.1177 198.967 58.0289L198.698 55.128Z" fill="#FF5652"/>
<path d="M198.998 54.3874C199.041 54.7974 198.851 55.1524 198.582 55.1769C198.312 55.2014 198.062 54.8954 198.025 54.4792C197.988 54.063 198.172 53.7142 198.435 53.6897C198.698 53.6652 198.955 53.9712 198.998 54.3874Z" fill="#263238"/>
<path d="M198.557 53.702L197.542 53.5123C197.542 53.5123 198.123 54.2344 198.557 53.702Z" fill="#263238"/>
<path d="M218.3 216.506H213.172L213.576 204.634H218.704L218.3 216.506Z" fill="#FFB573"/>
<path d="M212.768 215.913H218.527C218.626 215.91 218.723 215.944 218.799 216.009C218.874 216.073 218.924 216.163 218.937 216.261L219.592 220.815C219.605 220.93 219.593 221.046 219.558 221.157C219.523 221.267 219.464 221.369 219.387 221.455C219.309 221.541 219.214 221.61 219.108 221.657C219.002 221.703 218.888 221.727 218.772 221.727C216.764 221.696 215.797 221.574 213.264 221.574C211.703 221.574 209.427 221.739 207.278 221.739C205.13 221.739 205.008 219.609 205.908 219.419C209.922 218.55 210.559 217.363 211.911 216.225C212.152 216.025 212.455 215.914 212.768 215.913V215.913Z" fill="#263238"/>
<g opacity="0.2">
<path opacity="0.2" d="M218.704 204.633H213.576L213.368 210.753H218.496L218.704 204.633Z" fill="blackAlpha"/>
</g>
<path d="M197.902 75.936C194.764 74.7158 191.69 73.3371 188.692 71.805C185.595 70.2918 182.645 68.495 179.879 66.4378C179.14 65.859 178.441 65.2313 177.786 64.5589C177.615 64.3753 177.443 64.204 177.278 63.9898C177.084 63.7708 176.904 63.5399 176.74 63.2982C176.288 62.6407 176.006 61.8817 175.919 61.0889C175.852 60.3373 175.954 59.5801 176.219 58.8734C176.431 58.3055 176.722 57.7699 177.082 57.2822C177.673 56.4738 178.371 55.7492 179.157 55.128C180.544 54.0238 182.041 53.0661 183.625 52.27C184.383 51.866 185.155 51.505 185.938 51.1684C186.721 50.8318 187.492 50.5135 188.331 50.2259L189.414 52.5821C186.746 54.2651 183.979 56.1194 181.948 58.188C181.493 58.6488 181.093 59.1601 180.754 59.7119C180.46 60.1954 180.467 60.5565 180.516 60.5259C180.565 60.4953 180.516 60.5258 180.601 60.587L180.846 60.8502C180.938 60.9604 181.066 61.0705 181.183 61.1868C181.701 61.6639 182.251 62.1056 182.829 62.5087C184.092 63.4032 185.408 64.2207 186.77 64.9567C188.147 65.7278 189.567 66.4561 191.011 67.1538C193.9 68.5369 196.887 69.865 199.818 71.0767L197.902 75.936Z" fill="#FFB573"/>
<path d="M190.944 50.9358L191.788 49.0998L187.921 47.784C187.921 47.784 186.697 51.4009 188.147 53.0656C188.753 52.9701 189.326 52.7255 189.814 52.3538C190.303 51.982 190.691 51.4948 190.944 50.9358Z" fill="#FFB573"/>
<path d="M191.77 45.1278L188.692 44.2343L187.921 47.7594L191.77 49.0997V45.1278Z" fill="#FFB573"/>
<path d="M231.55 49.2772L231.997 44.9932L228.031 45.9479C228.031 45.9479 227.97 49.9749 230.069 50.6114L231.55 49.2772Z" fill="#FFB573"/>
<path d="M230.088 41.9761L227.499 43.1818L228.031 45.9174L231.997 44.981L230.088 41.9761Z" fill="#FFB573"/>
<path d="M212.694 51.609C212.884 56.6947 213.068 58.8428 210.773 61.6886C207.315 65.9726 201.03 65.0852 199.328 60.1586C197.798 55.7278 197.749 48.1573 202.499 45.6604C203.543 45.1052 204.711 44.826 205.894 44.8494C207.076 44.8727 208.233 45.1978 209.254 45.7937C210.275 46.3896 211.128 47.2366 211.73 48.2544C212.332 49.2721 212.664 50.4269 212.694 51.609V51.609Z" fill="#FFB573"/>
<path d="M210.479 61.6825C215.473 59.5221 218.753 54.9505 217.37 47.8635C216.042 41.0642 211.452 40.391 209.555 41.7986C207.658 43.2062 202.927 41.107 200.087 43.4938C195.191 47.6371 199.818 52.0619 202.242 54.7363C203.686 57.7106 205.583 63.7939 210.479 61.6825Z" fill="#263238"/>
<path d="M208.404 46.6456C209.014 47.4271 209.838 48.0131 210.777 48.3313C211.715 48.6494 212.726 48.6858 213.685 48.436C214.644 48.1861 215.509 47.661 216.172 46.9253C216.836 46.1897 217.27 45.2757 217.42 44.2963C217.571 43.3169 217.431 42.3149 217.019 41.414C216.606 40.5131 215.939 39.7527 215.099 39.2267C214.259 38.7008 213.284 38.4322 212.293 38.4542C211.302 38.4762 210.34 38.7878 209.524 39.3506C208.409 40.1697 207.664 41.3983 207.454 42.7663C207.244 44.1342 207.586 45.5296 208.404 46.6456Z" fill="#414272"/>
<path d="M209.702 42.276C208.986 38.1756 212.86 35.0176 218.05 36.5415C223.239 38.0654 220.498 42.6615 219.427 46.3335C218.356 50.0055 221.158 53.5062 222.321 50.7093C223.484 47.9125 221.526 47.0373 221.526 47.0373C221.526 47.0373 227.034 48.4633 221.917 54.6751C216.801 60.8869 212.168 54.0264 213.423 49.981C214.439 46.7313 210.381 46.1499 209.702 42.276Z" fill="#263238"/>
<path d="M204.518 43.8243C202.15 42.6003 198.141 41.5905 195.858 45.4339C194.781 47.2699 195.197 49.7179 195.197 49.7179L202.168 50.1769L204.518 43.8243Z" fill="#263238"/>
<path d="M194.377 48.5062C194.336 48.503 194.298 48.4841 194.271 48.4532C194.243 48.4224 194.229 48.3821 194.23 48.3409C194.23 48.2369 194.408 45.7766 195.895 44.2344C199.488 40.5012 203.698 43.6224 204.898 44.6322C204.923 44.6595 204.938 44.6954 204.939 44.7329C204.94 44.7705 204.928 44.8071 204.903 44.8359C204.879 44.8646 204.845 44.8835 204.808 44.8888C204.771 44.8941 204.733 44.8856 204.702 44.8648C203.545 43.8733 199.518 40.9051 196.134 44.4425C194.726 45.9052 194.555 48.3348 194.555 48.3593C194.554 48.3811 194.549 48.4025 194.539 48.4221C194.53 48.4418 194.516 48.4591 194.499 48.473C194.483 48.4869 194.463 48.4971 194.442 48.5028C194.421 48.5085 194.399 48.5097 194.377 48.5062Z" fill="#263238"/>
<path d="M203.092 54.516C203.065 55.4788 202.708 56.4032 202.082 57.1353C201.238 58.1268 200.246 57.6372 200.044 56.5233C199.843 55.538 200.044 53.8305 201.109 53.2369C202.174 52.6432 203.105 53.4021 203.092 54.516Z" fill="#FFB573"/>
<path d="M201.991 101.101C201.991 101.101 202.321 136.689 205.406 156.518C207.903 172.534 212.511 209.572 212.511 209.572H219.506C219.506 209.572 220.186 173.813 218.894 157.975C215.693 117.889 223.962 110.392 217.291 101.101H201.991Z" fill="#263238"/>
<path opacity="0.1" d="M201.991 101.101C201.991 101.101 202.321 136.689 205.406 156.518C207.903 172.534 212.511 209.572 212.511 209.572H219.506C219.506 209.572 220.186 173.813 218.894 157.975C215.693 117.889 223.962 110.392 217.291 101.101H201.991Z" fill="white"/>
<path opacity="0.3" d="M205.669 117.246C208.117 127.987 206.165 144.902 204.824 152.35C203.404 141.041 202.688 126.383 202.333 115.63C203.6 113.586 204.8 113.452 205.669 117.246Z" fill="blackAlpha"/>
<path d="M211.556 209.707H220.461L220.926 206.586L211.507 206.268L211.556 209.707Z" fill="#414272"/>
<path d="M214.096 71.0399C214.934 69.3753 219.439 68.3288 221.899 68.3349L223.735 76.5112C223.735 76.5112 218.839 83.7879 216.795 83.0168C214.39 82.1294 212.303 74.6324 214.096 71.0399Z" fill="#414272"/>
<path opacity="0.4" d="M214.096 71.0399C214.934 69.3753 219.439 68.3288 221.899 68.3349L223.735 76.5112C223.735 76.5112 218.839 83.7879 216.795 83.0168C214.39 82.1294 212.303 74.6324 214.096 71.0399Z" fill="blackAlpha"/>
<path d="M208.906 207.706C208.916 207.688 208.922 207.668 208.922 207.647C208.922 207.627 208.916 207.607 208.906 207.589C208.895 207.566 208.876 207.547 208.853 207.535C208.83 207.522 208.803 207.518 208.778 207.522C208.521 207.565 206.256 207.92 205.95 208.569C205.918 208.628 205.9 208.694 205.9 208.761C205.9 208.829 205.918 208.895 205.95 208.954C206.003 209.051 206.078 209.133 206.17 209.194C206.262 209.255 206.367 209.292 206.477 209.303C207.217 209.376 208.313 208.348 208.863 207.724L208.906 207.706ZM206.189 208.648C206.397 208.305 207.572 207.987 208.466 207.822C207.658 208.642 206.948 209.101 206.532 209.046C206.46 209.039 206.391 209.014 206.331 208.973C206.271 208.932 206.222 208.878 206.189 208.813C206.175 208.79 206.168 208.764 206.168 208.737C206.168 208.71 206.175 208.684 206.189 208.66C206.189 208.66 206.183 208.654 206.189 208.648Z" fill="#414272"/>
<path d="M214.249 205.533L209.561 207.62L207.474 203.269L204.745 197.577L204.42 196.916L209.108 194.829L209.469 195.576L212.113 201.09L214.249 205.533Z" fill="#FFB573"/>
<path opacity="0.2" d="M212.113 201.09L207.474 203.269L204.745 197.577L209.469 195.576L212.113 201.09Z" fill="blackAlpha"/>
<path d="M196.495 101.101C196.495 101.101 181.519 138.36 185.577 155.863C189.249 171.708 205.467 201.714 205.467 201.714L211.752 198.568C211.752 198.568 201.721 162.344 200.638 154.474C198.52 139.174 212.125 117.552 212.125 101.101H196.495Z" fill="#263238"/>
<path opacity="0.1" d="M196.495 101.101C196.495 101.101 181.519 138.36 185.577 155.863C189.249 171.708 205.467 201.714 205.467 201.714L211.752 198.568C211.752 198.568 201.721 162.344 200.638 154.474C198.52 139.174 212.125 117.552 212.125 101.101H196.495Z" fill="white"/>
<path d="M208.729 206.965L213.38 203.581C213.459 203.519 213.557 203.489 213.656 203.496C213.756 203.503 213.849 203.546 213.919 203.618L217.132 206.916C217.21 207.002 217.268 207.104 217.304 207.214C217.341 207.325 217.353 207.441 217.341 207.557C217.329 207.672 217.292 207.784 217.234 207.885C217.176 207.985 217.097 208.072 217.003 208.14C215.357 209.291 214.506 209.768 212.462 211.255C211.201 212.173 208.692 214.199 206.954 215.466C205.216 216.733 203.894 215.08 204.506 214.401C207.248 211.341 207.823 209.444 208.251 207.724C208.318 207.423 208.487 207.155 208.729 206.965V206.965Z" fill="#263238"/>
<path d="M205.063 203.042L213.16 199.34L212.125 196.041L203.453 199.995L205.063 203.042Z" fill="#414272"/>
<path d="M200.467 70.6483C199.8 68.9102 193.949 66.9763 191.011 66.3643L189.72 75.9849C189.72 75.9849 194.518 82.876 196.617 82.3069C199.102 81.6337 201.911 74.3754 200.467 70.6483Z" fill="#414272"/>
<path opacity="0.4" d="M200.467 70.6483C199.8 68.9102 193.949 66.9763 191.011 66.3643L189.72 75.9849C189.72 75.9849 194.518 82.876 196.617 82.3069C199.102 81.6337 201.911 74.3754 200.467 70.6483Z" fill="blackAlpha"/>
<path d="M194.047 70.1648C194.047 70.1648 191.599 71.0216 196.495 101.101H217.303C216.954 92.6313 216.942 87.4048 220.975 70.0118C218.059 69.4102 215.104 69.0216 212.132 68.849C208.986 68.6223 205.828 68.6223 202.682 68.849C198.649 69.2039 194.047 70.1648 194.047 70.1648Z" fill="#414272"/>
<path opacity="0.4" d="M194.047 70.1648C194.047 70.1648 191.599 71.0216 196.495 101.101H217.303C216.954 92.6313 216.942 87.4048 220.975 70.0118C218.059 69.4102 215.104 69.0216 212.132 68.849C208.986 68.6223 205.828 68.6223 202.682 68.849C198.649 69.2039 194.047 70.1648 194.047 70.1648Z" fill="blackAlpha"/>
<path d="M217.627 99.8836L218.564 101.72C218.637 101.866 218.466 102.013 218.227 102.013H196.391C196.201 102.013 196.048 101.922 196.036 101.799L195.846 99.9631C195.846 99.8346 195.999 99.7244 196.201 99.7244H217.26C217.33 99.7134 217.402 99.7225 217.467 99.7506C217.532 99.7788 217.587 99.8249 217.627 99.8836Z" fill="#414272"/>
<path opacity="0.3" d="M217.627 99.8836L218.564 101.72C218.637 101.866 218.466 102.013 218.227 102.013H196.391C196.201 102.013 196.048 101.922 196.036 101.799L195.846 99.9631C195.846 99.8346 195.999 99.7244 196.201 99.7244H217.26C217.33 99.7134 217.402 99.7225 217.467 99.7506C217.532 99.7788 217.587 99.8249 217.627 99.8836Z" fill="white"/>
<path d="M214.812 102.252H215.375C215.491 102.252 215.577 102.191 215.565 102.123L215.302 99.6755C215.302 99.602 215.198 99.5469 215.087 99.5469H214.518C214.408 99.5469 214.322 99.602 214.329 99.6755L214.592 102.123C214.586 102.179 214.684 102.252 214.812 102.252Z" fill="#263238"/>
<path d="M201.109 102.252H201.672C201.783 102.252 201.868 102.191 201.862 102.123L201.599 99.6755C201.599 99.602 201.495 99.5469 201.379 99.5469H200.816C200.699 99.5469 200.62 99.602 200.626 99.6755L200.889 102.123C200.895 102.179 200.993 102.252 201.109 102.252Z" fill="#263238"/>
</svg>
